<?xml version="1.0" standalone="no"?>
<!DOCTYPE svg PUBLIC "-//W3C//DTD SVG 20010904//EN"
 "http://www.w3.org/TR/2001/REC-SVG-20010904/DTD/svg10.dtd">
<svg version="1.0" xmlns="http://www.w3.org/2000/svg"
 width="1200.000000pt" height="800.000000pt" viewBox="0 0 1200.000000 800.000000"
 preserveAspectRatio="xMidYMid meet">

<g transform="translate(0.000000,800.000000) scale(0.100000,-0.100000)"
fill="#000000" stroke="none">
<path d="M7296 5909 c29 -48 94 -129 94 -117 0 17 -76 121 -92 127 -7 2 -8 -1
-2 -10z"/>
<path d="M7257 5814 c-8 -8 3 -35 23 -59 9 -11 36 -51 59 -90 22 -38 41 -65
41 -58 0 24 -114 216 -123 207z"/>
<path d="M7191 5685 c2 -6 34 -71 70 -145 37 -74 85 -178 107 -230 40 -95 94
-251 89 -256 -2 -2 -18 20 -37 49 -55 86 -111 159 -117 153 -3 -3 4 -18 16
-34 12 -17 21 -34 21 -40 0 -5 7 -15 15 -22 8 -7 15 -20 15 -29 0 -9 14 -28
32 -43 18 -14 29 -30 25 -34 -4 -5 -11 -4 -15 1 -4 6 -15 16 -24 23 -14 11
-16 11 -11 -7 7 -28 -23 -28 -32 -1 -3 11 -11 20 -16 20 -6 0 -7 -9 -4 -21 5
-15 4 -19 -4 -15 -6 4 -11 18 -11 32 0 16 4 23 11 18 14 -8 -6 31 -38 73 -14
18 -22 36 -19 42 3 5 0 11 -8 14 -7 3 -30 47 -50 99 -33 86 -84 184 -91 176
-2 -2 16 -42 39 -89 49 -99 122 -280 131 -324 l7 -30 -31 35 c-27 31 -30 33
-31 13 0 -12 7 -28 15 -37 21 -21 19 -26 -11 -26 -19 0 -25 -4 -20 -15 3 -9 0
-15 -9 -15 -8 0 -15 7 -15 15 0 8 -6 15 -14 15 -9 0 -12 7 -9 20 3 12 -4 27
-19 42 -25 24 -52 77 -44 85 3 3 -3 13 -12 24 -9 10 -39 61 -67 114 -27 52
-53 95 -57 95 -11 0 -10 -18 1 -22 11 -4 101 -179 101 -196 0 -7 11 -35 25
-62 27 -54 32 -85 13 -96 -7 -4 -8 -3 -4 5 4 6 0 14 -11 18 -10 3 -22 12 -26
20 -4 7 -13 13 -19 13 -6 0 -4 -8 5 -18 21 -23 22 -42 1 -42 -8 0 -12 -4 -9
-10 10 -16 -12 -12 -29 6 -9 8 -20 13 -24 10 -5 -3 -23 23 -40 57 -34 66 -72
126 -72 115 0 -3 16 -39 35 -79 19 -41 35 -79 35 -86 0 -8 -13 -13 -34 -13
-19 0 -37 -4 -40 -9 -3 -4 -25 -4 -50 2 -39 9 -48 16 -70 57 -29 53 -32 65
-13 54 6 -4 0 4 -15 19 -28 26 -39 55 -16 41 7 -4 8 -3 4 5 -4 6 -12 8 -18 5
-7 -4 -8 -2 -4 4 8 13 -23 61 -39 62 -6 0 15 -53 47 -117 43 -86 55 -119 45
-125 -21 -14 -37 -9 -37 13 0 11 -4 17 -10 14 -6 -3 -7 1 -4 9 8 20 -13 21
-31 2 -10 -10 -11 -16 -2 -25 6 -6 12 -17 13 -25 1 -11 -6 -12 -39 -4 -23 5
-44 13 -47 17 -3 4 -20 31 -39 59 -46 72 -50 65 -7 -13 27 -49 33 -67 23 -71
-20 -7 -66 3 -85 18 -13 11 -15 10 -9 -4 5 -15 1 -18 -27 -18 -30 0 -36 6 -74
70 -23 38 -42 76 -42 84 0 15 -29 30 -39 20 -3 -3 1 -11 9 -17 17 -13 90 -148
90 -167 0 -8 -9 -10 -24 -6 -14 3 -28 1 -31 -4 -9 -14 -78 -6 -83 10 -3 8 0
10 8 5 9 -6 9 -3 1 14 -13 24 -23 28 -15 6 4 -8 4 -15 1 -15 -8 0 -62 84 -67
105 -3 11 -14 21 -24 23 -18 4 -18 2 1 -24 22 -31 83 -133 83 -138 0 -2 -17
-4 -38 -4 -21 0 -43 -2 -49 -4 -6 -2 -20 8 -32 22 -22 24 -22 24 -11 2 20 -41
3 -36 -24 7 -30 48 -33 59 -8 40 15 -13 16 -12 3 3 -7 10 -17 16 -21 13 -5 -3
-10 5 -12 17 -3 23 -28 38 -28 17 0 -6 16 -36 35 -65 19 -29 35 -57 35 -63 0
-10 -57 -16 -105 -11 -26 2 -44 20 -50 48 -2 12 -7 27 -10 32 -10 15 -35 12
-35 -5 0 -8 4 -15 8 -15 12 0 44 -59 38 -69 -3 -5 -27 -12 -52 -16 -26 -3 -53
-9 -60 -12 -10 -3 -16 5 -20 26 -7 31 -20 48 -31 38 -3 -3 2 -20 10 -36 15
-30 15 -31 -7 -37 -13 -3 -30 -4 -37 -3 -8 1 -26 -1 -41 -5 -15 -4 -36 -5 -48
-1 -12 4 -112 95 -223 203 -207 202 -358 327 -482 400 -112 66 -255 118 -255
93 0 -6 7 -11 15 -11 8 0 15 -6 15 -13 0 -7 34 -46 75 -87 41 -41 75 -72 75
-68 0 4 -6 13 -12 20 -56 61 -71 80 -60 74 6 -4 12 -2 12 4 0 6 -7 13 -15 16
-19 8 -19 24 0 24 14 0 53 -18 65 -30 3 -3 22 -14 43 -25 20 -11 37 -23 37
-27 0 -12 -10 -9 -26 7 -9 8 -20 15 -26 15 -6 0 7 -16 28 -36 26 -23 31 -31
16 -24 -35 17 -37 6 -4 -22 16 -13 27 -28 25 -34 -2 -6 19 -30 47 -53 27 -23
50 -48 50 -54 0 -7 10 -18 22 -26 20 -12 20 -14 4 -23 -15 -8 -27 -1 -66 43
-27 30 -50 52 -53 49 -2 -3 17 -33 43 -66 39 -51 50 -60 64 -52 16 9 16 8 6
-12 -10 -20 -8 -28 19 -67 17 -24 38 -60 47 -81 9 -20 18 -31 21 -25 3 10 10
10 26 2 13 -7 6 4 -16 26 -38 36 -45 61 -10 34 24 -18 -9 21 -56 67 -29 29
-31 35 -17 40 10 4 23 1 29 -7 7 -8 8 -11 3 -6 -26 20 -26 3 -1 -23 17 -18 35
-28 44 -25 8 3 30 -8 50 -27 20 -18 5 0 -34 40 -38 39 -65 72 -59 72 5 0 16
-6 24 -12 8 -7 -3 7 -24 32 -21 25 -52 57 -69 72 -17 15 -29 30 -26 32 3 3 35
-24 72 -60 37 -35 67 -61 67 -56 0 5 -27 35 -60 68 -33 32 -60 63 -60 69 0 5
22 -12 48 -38 26 -26 52 -47 57 -47 5 0 -13 23 -40 50 -27 28 -44 50 -38 50
13 0 295 -282 319 -320 9 -14 -39 30 -106 97 -68 68 -126 121 -128 118 -4 -4
132 -153 169 -185 3 -3 36 -41 73 -85 l68 -80 -86 88 c-47 48 -88 87 -91 87
-7 0 15 -26 134 -161 l74 -84 -101 102 c-56 57 -102 100 -102 97 0 -4 28 -38
63 -78 56 -64 56 -76 0 -18 -12 13 -26 21 -31 18 -5 -3 -20 6 -32 19 -36 39
-46 29 -11 -10 38 -44 40 -57 4 -24 -16 14 -37 32 -48 40 -19 13 -19 13 -5 -5
41 -53 153 -155 164 -150 7 4 6 2 -1 -6 -11 -12 -18 -9 -43 15 -29 28 -43 24
-17 -5 6 -7 -9 3 -34 23 -25 20 -49 37 -53 37 -4 0 -24 11 -44 25 -47 32 -52
32 -52 -9 0 -30 -19 -64 -57 -104 -17 -17 -17 -17 12 -18 16 -1 24 3 22 10 -7
18 12 46 27 40 7 -3 16 2 19 10 4 11 1 13 -10 9 -11 -4 -14 -2 -11 8 8 25 36
21 70 -11 22 -22 27 -30 14 -25 -19 6 -19 5 -1 -15 20 -22 15 -25 -18 -9 -15
7 -13 2 8 -15 35 -30 28 -33 -18 -9 -27 13 -30 14 -19 1 10 -13 8 -16 -20 -22
-23 -5 -29 -9 -20 -15 21 -13 -10 -21 -71 -20 -29 1 -44 3 -34 6 18 5 24 23 7
23 -9 0 -90 -49 -90 -55 0 -1 11 0 25 3 14 2 25 8 25 12 0 10 49 0 56 -11 3
-5 -20 -21 -52 -36 -50 -22 -61 -24 -89 -14 -39 14 -56 14 -32 0 18 -10 17
-12 -10 -29 -16 -10 -40 -21 -54 -24 -24 -7 -24 -7 4 18 30 28 37 59 10 54 -9
-2 -26 -21 -38 -42 -12 -22 -36 -54 -53 -71 -27 -30 -34 -32 -69 -25 -21 4
-51 13 -66 19 -40 16 -40 16 -75 -34 -44 -63 -40 -67 13 -15 42 41 46 43 72
31 l28 -13 -40 -18 c-22 -9 -53 -23 -70 -30 -16 -8 -32 -14 -35 -14 -3 -1 -22
-14 -42 -29 -30 -23 -40 -26 -57 -18 -10 6 -21 7 -23 2 -2 -4 -31 -22 -65 -38
-71 -35 -84 -23 -28 24 40 35 44 46 14 41 -15 -2 -32 -21 -52 -60 -29 -55 -75
-92 -102 -82 -6 3 -32 -4 -57 -15 -26 -11 -48 -17 -51 -15 -8 9 18 54 31 54 7
0 10 5 7 10 -15 24 -42 9 -53 -28 -7 -21 -22 -47 -34 -58 -26 -23 -116 -59
-125 -50 -3 3 -11 2 -17 -3 -14 -11 -86 -31 -86 -24 0 3 9 18 21 34 17 25 18
29 4 29 -9 0 -22 -15 -30 -34 -19 -45 -54 -71 -120 -91 -50 -14 -57 -14 -90 2
-37 18 -37 18 -56 -7 -54 -70 -54 -70 -201 -108 -38 -10 -55 2 -22 15 12 5 13
7 3 14 -9 5 -23 -3 -41 -26 -42 -50 -190 -93 -224 -64 -14 11 -18 10 -34 -11
-15 -20 -28 -24 -97 -28 -48 -3 -95 0 -116 7 -64 21 -190 152 -361 375 -56 73
-121 148 -282 331 -209 236 -292 311 -434 388 -94 51 -280 110 -280 89 0 -4
27 -27 60 -51 34 -25 75 -61 93 -81 72 -83 108 -127 194 -238 35 -46 124 -182
130 -200 3 -9 16 -31 29 -48 30 -42 152 -289 170 -344 15 -51 64 -112 85 -108
8 2 15 -7 17 -20 2 -15 9 -22 20 -20 9 2 16 -2 15 -9 -1 -6 5 -17 14 -25 15
-12 16 -10 10 20 -4 21 -3 31 3 27 6 -3 10 -13 10 -21 0 -8 5 -12 11 -9 7 5 4
14 -7 26 -9 11 -19 17 -21 15 -9 -8 -75 73 -68 84 3 5 -1 10 -10 10 -9 0 -14
4 -11 9 3 5 -4 20 -15 35 -11 14 -17 31 -13 37 4 8 3 9 -4 5 -7 -4 -12 -1 -12
8 0 9 5 16 11 16 10 0 -50 79 -99 128 -29 30 -72 98 -72 114 0 7 11 -4 25 -24
14 -20 25 -41 25 -45 0 -5 20 -28 44 -53 42 -40 45 -41 44 -19 -2 33 -28 64
-41 47 -6 -10 -7 -9 -4 2 5 18 -35 70 -108 141 -30 29 -55 57 -55 62 0 5 6 4
13 -2 8 -6 18 -7 22 -3 5 4 5 2 1 -5 -3 -6 -2 -14 4 -18 5 -3 10 2 10 12 0 10
-21 40 -45 66 -25 26 -45 50 -45 53 0 14 43 -22 79 -67 58 -73 112 -131 117
-127 2 2 -28 39 -66 82 -63 71 -88 108 -60 91 19 -12 10 12 -16 41 -14 16 -60
64 -102 108 -42 43 -68 74 -57 68 11 -6 29 -20 39 -31 14 -15 22 -18 27 -10 5
9 11 8 23 -2 40 -34 247 -273 323 -374 45 -60 115 -150 154 -200 39 -49 100
-134 136 -187 66 -99 93 -130 93 -110 0 6 -13 26 -28 44 -16 18 -52 67 -80
108 -28 41 -64 91 -79 112 -15 20 -43 56 -61 80 -18 23 -38 50 -45 58 -7 9
-33 42 -57 75 -25 33 -83 106 -128 163 -46 57 -82 106 -79 109 6 5 60 -52 86
-91 8 -12 40 -50 71 -86 31 -36 70 -85 87 -110 17 -25 44 -58 61 -75 16 -16
38 -43 48 -60 40 -64 97 -136 102 -130 4 3 2 9 -4 13 -6 4 -13 14 -16 22 -6
15 -59 88 -156 212 -54 70 -64 90 -35 67 17 -13 17 -12 2 6 -30 37 -32 50 -5
25 30 -27 184 -221 283 -356 33 -47 63 -79 65 -73 2 6 23 -14 47 -45 58 -74
146 -150 195 -166 42 -14 184 -8 247 10 18 6 70 15 114 21 133 18 182 27 209
42 16 8 97 18 156 19 8 1 20 4 25 8 10 8 85 24 97 22 24 -5 127 23 144 40 15
13 24 16 29 8 5 -8 11 -7 23 2 11 10 16 10 19 1 3 -8 12 -9 29 -3 15 6 24 6
24 0 0 -19 22 -10 27 11 4 12 11 18 20 15 7 -3 22 0 33 6 14 9 22 9 34 -1 12
-10 19 -10 38 2 13 9 39 14 60 12 23 -3 41 1 48 11 14 16 35 20 25 4 -3 -5 0
-7 8 -4 8 3 18 0 22 -6 5 -8 17 -3 36 16 17 16 29 22 29 14 0 -10 5 -9 18 3
10 10 22 14 25 11 4 -4 13 -2 21 5 8 6 22 13 32 16 11 2 27 6 37 10 12 5 17 2
17 -10 0 -16 2 -17 18 -3 24 21 52 30 52 16 0 -7 4 -7 13 0 6 5 23 13 37 17
20 6 23 5 13 -6 -7 -7 -13 -17 -13 -21 0 -12 42 14 58 35 8 10 26 17 48 17 20
0 34 5 34 13 0 7 7 4 15 -7 14 -18 15 -19 15 -2 0 14 6 17 25 14 14 -3 25 -2
25 1 0 3 11 11 25 18 15 6 25 7 25 1 0 -5 5 -6 12 -2 22 14 78 15 78 3 0 -7 9
-4 21 7 15 14 22 15 28 6 6 -9 12 -7 25 7 10 11 24 17 31 15 7 -3 16 -1 19 4
3 5 24 8 47 7 24 -1 57 3 74 11 18 7 35 10 39 7 3 -4 17 4 30 16 22 21 54 21
41 1 -3 -5 7 -2 22 6 16 8 49 14 78 13 28 -2 60 3 72 9 12 7 48 14 80 16 32 2
58 5 58 6 0 1 12 3 28 5 15 2 27 -1 27 -6 0 -5 7 -9 16 -9 8 0 13 4 10 9 -3 4
7 7 22 5 14 -1 32 2 39 8 7 6 43 13 80 15 38 3 74 11 82 17 11 8 15 8 18 -1 3
-8 12 -9 28 -3 12 5 26 6 29 3 3 -3 13 0 21 7 9 8 42 15 73 16 109 6 249 29
268 45 8 7 14 6 19 -1 3 -6 11 -7 18 -3 6 3 40 8 76 9 37 2 66 4 66 4 0 5 117
5 120 0 2 -4 -5 -14 -15 -23 -13 -11 -22 -13 -26 -6 -4 7 -19 8 -38 4 -62 -14
-163 -26 -261 -31 -55 -3 -104 -10 -109 -15 -16 -15 -36 -11 -30 6 8 21 -10
19 -30 -4 -12 -13 -36 -20 -89 -24 -39 -3 -85 -11 -102 -17 -16 -6 -32 -11
-33 -10 -2 1 -10 -7 -18 -17 -8 -11 -13 -13 -14 -5 0 16 -14 15 -53 -2 -18 -7
-45 -17 -61 -22 -16 -5 -31 -15 -34 -22 -6 -18 58 -9 73 12 14 18 30 22 19 5
-6 -11 49 -4 71 9 5 3 22 7 37 9 16 2 42 10 59 18 16 9 44 15 62 15 38 -1 86
5 107 14 8 3 67 7 130 8 75 2 114 7 113 14 -1 6 13 11 30 12 102 4 184 11 200
17 14 6 16 3 11 -11 -5 -18 -5 -18 6 -1 6 10 23 22 36 27 15 6 24 18 24 30 0
18 -3 19 -22 9 -20 -10 -21 -9 -8 2 8 8 21 21 29 29 12 13 13 13 8 -2 -5 -15
-1 -17 31 -12 20 3 41 9 47 12 8 5 47 10 115 13 73 4 170 -14 170 -32 0 -5 -4
-9 -10 -9 -5 0 -10 -4 -10 -9 0 -4 18 -4 39 2 41 11 78 -4 64 -26 -3 -6 -1 -7
6 -3 6 4 9 12 6 17 -4 5 4 10 17 10 13 1 41 3 63 4 22 1 58 5 80 10 53 10 79
12 218 21 97 6 121 5 129 -7 8 -11 9 -10 4 3 -4 15 1 17 34 15 22 -1 40 -6 40
-11 0 -5 7 -3 15 4 14 12 19 7 16 -15 -1 -5 5 -2 12 8 8 9 17 17 21 17 3 0 6
-8 6 -17 1 -17 2 -17 15 1 16 22 48 15 39 -9 -7 -18 0 -19 28 -4 15 8 23 8 33
-3 11 -11 9 -18 -11 -43 l-25 -30 10 28 c12 32 -1 36 -22 6 -11 -15 -16 -17
-20 -7 -7 21 -17 4 -10 -20 4 -17 8 -20 19 -11 7 6 18 8 24 4 7 -4 18 2 26 14
8 12 19 21 25 21 16 0 10 -21 -13 -42 l-23 -20 23 5 c17 4 22 1 22 -16 0 -21
1 -21 20 3 16 20 20 22 20 8 0 -24 8 -23 29 4 13 16 23 19 37 13 32 -14 48
-14 62 -3 13 12 22 5 36 -27 3 -6 9 -3 15 5 10 13 12 13 21 0 9 -13 10 -13 10
0 1 20 39 -29 40 -50 0 -13 1 -13 10 0 9 13 14 7 11 -12 0 -5 8 -8 19 -8 25 0
37 25 21 44 -15 18 -5 23 39 20 37 -2 41 -15 15 -44 -7 -8 -16 -26 -20 -40 -3
-14 -13 -40 -21 -58 -8 -18 -13 -36 -9 -41 8 -15 -5 -39 -24 -44 -20 -5 -34
-54 -18 -60 6 -2 5 -11 -2 -25 -7 -13 -16 -20 -20 -17 -10 5 -26 -42 -77 -219
-19 -67 -41 -138 -49 -158 -8 -21 -11 -38 -7 -38 13 0 49 93 62 160 14 70 88
237 117 262 10 9 37 25 61 37 43 22 58 43 23 34 -15 -4 -18 0 -15 22 1 15 7
32 13 38 6 6 11 15 11 20 0 5 -7 1 -16 -7 -26 -26 -39 -18 -14 9 25 26 21 47
-5 25 -28 -23 -16 6 16 38 36 37 54 41 46 12 -3 -11 -1 -23 4 -26 5 -3 9 0 9
5 0 6 9 11 20 11 14 0 18 -5 14 -17 -5 -15 -3 -15 11 2 9 11 19 20 23 21 19 2
41 17 37 24 -9 14 6 40 23 40 9 0 25 11 37 25 20 25 21 25 85 14 37 -6 71 -18
78 -28 7 -9 21 -17 30 -17 9 -1 35 -5 57 -9 22 -3 55 -6 73 -6 35 1 42 -12 15
-28 -14 -8 -15 -13 -5 -19 7 -5 10 -16 6 -26 -6 -14 -1 -14 30 5 49 29 229 41
308 21 25 -7 40 -6 47 1 8 8 14 8 23 -1 17 -17 35 -15 56 9 17 17 20 18 25 5
6 -16 37 -23 37 -8 0 4 38 7 86 8 l85 1 -35 -17 c-46 -21 -82 -55 -113 -107
-33 -57 -43 -170 -19 -238 15 -47 14 -74 -3 -46 -7 11 -9 11 -14 0 -5 -16 -45
67 -58 121 -7 31 -8 29 -4 -12 5 -51 51 -152 82 -180 31 -28 102 -42 153 -30
41 9 42 10 13 11 -26 1 -33 5 -33 21 0 14 7 20 24 20 66 0 187 72 225 134 41
65 19 182 -45 252 -14 14 -23 29 -19 32 3 3 26 -16 51 -42 41 -43 51 -49 92
-50 43 -1 65 9 74 36 7 18 34 -5 41 -35 6 -20 5 -20 -7 -4 -7 9 -16 17 -19 17
-7 0 0 -121 7 -127 2 -2 9 17 15 42 l11 45 60 0 c46 0 61 -4 70 -17 9 -17 11
-17 21 0 9 15 18 17 57 11 26 -3 52 -11 59 -16 7 -6 13 -4 16 4 3 9 10 6 22
-10 12 -17 20 -20 30 -12 13 11 45 4 45 -10 0 -5 -15 -21 -32 -35 -34 -27 -23
-25 22 5 14 10 38 25 53 34 l28 17 -24 19 c-38 30 -319 173 -492 250 -88 39
-188 85 -223 101 -68 32 -76 34 -67 19 3 -5 0 -10 -8 -10 -8 0 -17 9 -20 20
-3 11 -10 20 -17 20 -6 0 -8 -4 -5 -10 8 -13 -11 -13 -36 0 -10 6 -19 18 -19
27 0 10 -6 14 -20 10 -11 -3 -23 0 -27 5 -4 7 -1 8 7 3 8 -5 11 -4 7 2 -4 6
-16 13 -27 16 -11 3 -18 1 -14 -4 9 -15 -11 -10 -84 19 -41 16 -67 32 -64 40
2 6 -1 12 -7 12 -6 0 -11 -4 -11 -10 0 -16 -28 -12 -78 13 -26 13 -80 34 -121
47 -40 13 -81 31 -90 40 -41 41 -470 156 -806 215 -49 9 -115 20 -145 26 -30
5 -68 11 -85 13 -140 18 -168 32 -180 88 -13 56 -157 378 -170 378 -5 0 1 -18
47 -125 40 -92 54 -140 38 -130 -5 3 -10 10 -10 15 0 16 -20 63 -25 58 -3 -3
11 -54 30 -114 19 -60 35 -113 35 -118 0 -5 -11 3 -25 18 -18 19 -24 34 -19
48 4 13 2 18 -4 14 -5 -3 -12 4 -15 17 -2 12 -8 31 -12 41 -6 14 -5 17 3 12
16 -9 15 -4 -4 44 -9 22 -23 40 -31 40 -9 0 -12 6 -9 18 4 10 -1 27 -9 38 -15
19 -15 19 -9 -1 3 -11 -4 -3 -16 18 -12 21 -19 44 -17 50 2 6 -5 20 -14 31
-10 11 -27 35 -37 55 -23 46 -73 131 -77 131 -2 0 19 -44 46 -97 58 -116 126
-286 135 -334 5 -32 5 -33 -10 -15 -9 11 -16 27 -17 35 0 9 -9 30 -20 46 -10
17 -23 40 -28 52 -10 21 -31 40 -31 28 0 -4 11 -30 26 -58 26 -54 57 -140 69
-194 10 -51 -11 -39 -24 12 -6 25 -20 51 -31 57 -11 7 -20 16 -20 21 0 4 -9
28 -20 52 -11 24 -17 50 -14 59 3 8 -3 22 -15 32 -14 12 -19 26 -16 43 4 18 3
21 -3 8 -6 -13 -21 11 -67 104 -33 66 -64 123 -68 126 -5 3 5 -21 21 -54 88
-174 186 -443 163 -443 -4 0 -13 12 -20 27 -10 21 -14 24 -21 13 -5 -8 -6 -17
-2 -20 14 -10 10 -60 -4 -60 -8 0 -14 5 -14 11 0 6 -6 25 -14 42 -7 18 -18 45
-25 60 -7 17 -16 25 -23 21 -8 -5 -9 -2 -5 10 4 10 -1 24 -14 37 -11 11 -18
27 -15 37 6 19 -6 44 -20 43 -5 0 -9 8 -9 18 -1 10 -8 26 -18 35 -9 10 -17 24
-17 31 0 8 -13 36 -30 62 -16 26 -30 53 -30 60 0 7 -21 48 -46 91 -47 76 -60
97 -53 77z m-2171 -275 c0 -5 -2 -10 -4 -10 -3 0 -8 5 -11 10 -3 6 -1 10 4 10
6 0 11 -4 11 -10z m-25 -50 c3 -5 1 -10 -4 -10 -6 0 -11 5 -11 10 0 6 2 10 4
10 3 0 8 -4 11 -10z m216 -87 c13 -16 12 -17 -3 -4 -10 7 -18 15 -18 17 0 8 8
3 21 -13z m94 -93 c38 -38 67 -70 64 -70 -2 0 -36 32 -74 70 -38 39 -67 70
-64 70 2 0 36 -31 74 -70z m2285 -120 c0 -5 -5 -10 -11 -10 -5 0 -7 5 -4 10 3
6 8 10 11 10 2 0 4 -4 4 -10z m-6013 -60 c37 -17 64 -40 49 -40 -10 0 -86 42
-92 51 -7 13 -3 12 43 -11z m3935 -94 c16 -30 -7 -11 -43 37 l-33 42 33 -30
c18 -16 37 -38 43 -49z m1166 67 c-16 -2 -40 -2 -55 0 -16 2 -3 4 27 4 30 0
43 -2 28 -4z m-159 -7 c-2 -2 -31 -6 -64 -10 -41 -4 -55 -3 -45 4 13 9 119 15
109 6z m-4854 -24 c-3 -3 -11 0 -18 7 -9 10 -8 11 6 5 10 -3 15 -9 12 -12z
m4670 8 c-3 -5 -16 -10 -28 -9 -20 1 -20 2 3 9 14 4 26 8 28 9 2 1 0 -3 -3 -9z
m-4688 -35 c20 -19 35 -36 33 -39 -6 -6 -28 12 -59 47 -34 38 -19 34 26 -8z
m53 4 c0 -6 -4 -7 -10 -4 -5 3 -10 11 -10 16 0 6 5 7 10 4 6 -3 10 -11 10 -16z
m3685 -29 c21 -22 37 -40 34 -40 -3 0 -23 18 -44 40 -21 22 -37 40 -34 40 3 0
23 -18 44 -40z m-3635 -14 c0 -5 -7 -3 -15 4 -8 7 -15 20 -15 28 0 13 3 12 15
-4 8 -10 15 -23 15 -28z m46 9 c21 -19 34 -35 28 -35 -5 0 -25 16 -44 35 -44
45 -35 45 16 0z m3584 -27 c0 -15 -18 0 -41 35 l-22 32 31 -29 c18 -17 32 -34
32 -38z m-175 42 c3 -5 1 -10 -4 -10 -6 0 -11 5 -11 10 0 6 2 10 4 10 3 0 8
-4 11 -10z m386 -7 c13 -16 12 -17 -3 -4 -10 7 -18 15 -18 17 0 8 8 3 21 -13z
m-306 -49 l50 -45 -57 38 c-52 35 -70 53 -50 53 4 0 30 -21 57 -46z m163 16
c7 -11 11 -20 9 -20 -2 0 -12 9 -22 20 -10 11 -14 20 -9 20 5 0 15 -9 22 -20z
m-3662 -17 c-7 -7 -26 7 -26 19 0 6 6 6 15 -2 9 -7 13 -15 11 -17z m3904 -3
c-20 -13 -43 -13 -35 0 3 6 16 10 28 10 18 0 19 -2 7 -10z m-3951 -40 c24 -22
38 -40 32 -40 -7 0 -31 18 -54 40 -55 51 -35 51 22 0z m191 -45 c7 -9 8 -15 2
-15 -5 0 -12 7 -16 15 -3 8 -4 15 -2 15 2 0 9 -7 16 -15z m-104 -73 c-6 -5
-36 23 -36 34 0 4 9 -1 20 -11 11 -10 18 -20 16 -23z m49 -2 c16 -16 24 -30
19 -30 -6 0 -20 14 -32 30 -13 17 -21 30 -19 30 2 0 16 -13 32 -30z m6870 0
c17 -5 56 -14 88 -20 31 -6 57 -15 57 -20 0 -9 -120 12 -163 29 -16 6 -42 11
-58 11 -16 0 -29 4 -29 9 0 10 53 5 105 -9z m-6865 -84 c0 -6 -11 1 -25 16
-14 15 -25 30 -25 34 0 4 11 -3 25 -16 14 -13 25 -28 25 -34z m3065 24 c-3 -5
-11 -10 -16 -10 -6 0 -7 5 -4 10 3 6 11 10 16 10 6 0 7 -4 4 -10z m-2760 -108
c-3 -8 0 -21 6 -28 6 -8 7 -14 3 -14 -14 0 -38 42 -39 67 -1 21 0 21 17 6 10
-9 16 -23 13 -31z m3490 28 c-28 -12 -47 -12 -40 0 3 6 18 10 33 9 24 0 25 -1
7 -9z m1687 -12 c-7 -7 -12 -8 -12 -2 0 14 12 26 19 19 2 -3 -1 -11 -7 -17z
m163 2 c-34 -7 -40 -5 -31 8 3 5 18 7 33 4 l28 -6 -30 -6z m-1915 1 c-19 -11
-161 -33 -168 -26 -11 11 11 20 61 26 82 10 124 10 107 0z m1710 -1 c0 -5 -7
-10 -16 -10 -8 0 -12 5 -9 10 3 6 10 10 16 10 5 0 9 -4 9 -10z m120 0 c0 -5
-4 -10 -10 -10 -5 0 -10 5 -10 10 0 6 5 10 10 10 6 0 10 -4 10 -10z m40 6 c0
-3 -4 -8 -10 -11 -5 -3 -10 -1 -10 4 0 6 5 11 10 11 6 0 10 -2 10 -4z m-2050
-29 c0 -7 -8 -13 -17 -14 -10 -1 -31 -4 -48 -8 l-30 -6 35 20 c42 23 60 25 60
8z m1790 -2 c-7 -8 -17 -15 -22 -15 -6 0 -5 7 2 15 7 8 17 15 22 15 6 0 5 -7
-2 -15z m798 -35 c-4 -20 -58 -27 -58 -7 0 19 5 22 34 22 18 0 26 -5 24 -15z
m122 3 c0 -10 -9 -29 -20 -43 l-19 -25 6 24 c5 19 3 22 -8 16 -8 -5 -3 4 10
18 29 32 31 32 31 10z m-60 -7 c0 -16 -27 -29 -41 -20 -15 9 -10 22 9 27 29 8
32 7 32 -7z m110 -31 c-7 -8 -17 -12 -22 -9 -6 4 -5 10 3 15 22 14 33 10 19
-6z m627 9 c-3 -3 -12 -4 -19 -1 -8 3 -5 6 6 6 11 1 17 -2 13 -5z m-3836 -37
c-1 -12 -15 -9 -19 4 -3 6 1 10 8 8 6 -3 11 -8 11 -12z m-56 -7 c-28 -12 -47
-12 -40 0 3 6 18 10 33 9 24 0 25 -1 7 -9z m-85 -20 c0 -5 -2 -10 -4 -10 -3 0
-8 5 -11 10 -3 6 -1 10 4 10 6 0 11 -4 11 -10z m605 0 c-3 -5 -11 -10 -16 -10
-6 0 -7 5 -4 10 3 6 11 10 16 10 6 0 7 -4 4 -10z m-652 -20 c-10 -11 -18 -20
-19 -20 -1 0 0 9 3 20 3 11 12 20 19 20 11 0 10 -5 -3 -20z m607 16 c0 -3 -4
-8 -10 -11 -5 -3 -10 -1 -10 4 0 6 5 11 10 11 6 0 10 -2 10 -4z m3180 -6 c0
-5 -10 -10 -22 -9 -22 0 -22 1 -3 9 11 5 21 9 23 9 1 1 2 -3 2 -9z m-3835 -20
c-10 -11 -21 -17 -26 -15 -4 3 -26 -2 -48 -11 -22 -8 -50 -14 -63 -12 -16 3 1
12 57 30 98 33 103 33 80 8z m545 0 c0 -5 -5 -10 -11 -10 -5 0 -7 5 -4 10 3 6
8 10 11 10 2 0 4 -4 4 -10z m4054 -36 c27 -10 18 -21 -19 -22 -34 -1 -47 11
-22 21 18 8 23 8 41 1z m-7287 -51 c21 -51 11 -49 -13 2 -11 24 -16 41 -11 38
5 -3 16 -21 24 -40z m2468 18 c-3 -6 -18 -11 -33 -11 l-27 1 30 13 c32 14 41
13 30 -3z m5170 9 c3 -5 -1 -10 -9 -10 -9 0 -16 5 -16 10 0 6 4 10 9 10 6 0
13 -4 16 -10z m-4915 -39 c0 -15 -17 -22 -36 -14 -16 6 -16 7 2 14 27 11 34
10 34 0z m-150 -15 c0 -3 -4 -8 -10 -11 -5 -3 -10 -1 -10 4 0 6 5 11 10 11 6
0 10 -2 10 -4z m-2530 -70 c0 -6 -7 -2 -15 8 -8 11 -15 25 -15 30 0 6 7 2 15
-8 8 -11 15 -25 15 -30z m7542 12 c11 -11 14 -18 7 -16 -8 3 -26 -1 -41 -9
-75 -37 -86 -202 -16 -227 40 -14 106 9 150 54 51 51 49 73 -12 132 -57 55
-53 62 9 18 45 -33 65 -71 58 -110 -5 -22 -4 -23 8 -7 9 13 11 27 4 50 -11 40
-2 48 22 18 28 -34 25 -92 -7 -130 -61 -73 -181 -110 -241 -76 l-28 16 38 -6
c49 -8 47 5 -6 30 -35 16 -45 28 -57 65 -15 46 -28 62 -42 54 -16 -10 -8 47
12 86 44 86 93 107 142 58z m524 -35 c-10 -10 -19 5 -10 18 6 11 8 11 12 0 2
-7 1 -15 -2 -18z m-8035 -50 c13 -16 12 -17 -3 -4 -17 13 -22 21 -14 21 2 0
10 -8 17 -17z m1429 8 c0 -11 -50 -24 -58 -16 -8 8 19 25 41 25 9 0 17 -4 17
-9z m-1000 -22 c0 -6 -4 -7 -10 -4 -5 3 -10 11 -10 16 0 6 5 7 10 4 6 -3 10
-11 10 -16z m1607 4 c-14 -14 -19 -15 -29 -4 -9 9 -9 12 -1 7 6 -3 14 -2 18 4
3 5 11 10 18 10 6 0 4 -7 -6 -17z m5573 -3 c0 -5 -7 -10 -15 -10 -8 0 -15 5
-15 10 0 6 7 10 15 10 8 0 15 -4 15 -10z m-165 -260 c3 -5 -1 -10 -9 -10 -8 0
-18 5 -21 10 -3 6 1 10 9 10 8 0 18 -4 21 -10z"/>
<path d="M2160 4520 c0 -5 5 -10 11 -10 5 0 7 5 4 10 -3 6 -8 10 -11 10 -2 0
-4 -4 -4 -10z"/>
<path d="M9575 4170 c-3 -6 1 -7 9 -4 18 7 21 14 7 14 -6 0 -13 -4 -16 -10z"/>
<path d="M7610 5551 c0 -6 4 -13 10 -16 6 -3 7 1 4 9 -7 18 -14 21 -14 7z"/>
<path d="M7641 5500 c14 -31 19 -36 19 -24 0 6 -7 19 -16 30 -14 18 -14 18 -3
-6z"/>
<path d="M7470 5466 c0 -13 41 -88 46 -83 3 2 -5 22 -17 43 -24 43 -29 51 -29
40z"/>
<path d="M6836 5298 c21 -32 40 -56 42 -53 6 6 -34 69 -59 91 -13 11 -7 -3 17
-38z"/>
<path d="M6460 5232 c0 -5 9 -17 20 -27 23 -21 27 -4 4 19 -17 18 -24 20 -24
8z"/>
<path d="M5216 5159 c25 -31 64 -65 64 -56 0 1 -21 23 -47 47 -41 40 -43 41
-17 9z"/>
<path d="M5160 5176 c0 -2 8 -10 18 -17 15 -13 16 -12 3 4 -13 16 -21 21 -21
13z"/>
<path d="M5215 5120 c3 -5 8 -10 11 -10 2 0 4 5 4 10 0 6 -5 10 -11 10 -5 0
-7 -4 -4 -10z"/>
<path d="M6440 5106 c0 -2 8 -10 17 -17 9 -8 14 -9 10 -2 -4 6 -1 14 5 16 7 3
3 6 -9 6 -13 1 -23 -1 -23 -3z"/>
<path d="M6770 5101 c0 -6 4 -13 10 -16 6 -3 7 1 4 9 -7 18 -14 21 -14 7z"/>
<path d="M5205 5060 c21 -22 41 -40 43 -40 9 0 -63 78 -73 79 -5 1 9 -17 30
-39z"/>
<path d="M6165 5030 c-3 -5 -1 -10 4 -10 6 0 11 5 11 10 0 6 -2 10 -4 10 -3 0
-8 -4 -11 -10z"/>
<path d="M5185 4990 c10 -11 20 -20 23 -20 3 0 -3 9 -13 20 -10 11 -20 20 -23
20 -3 0 3 -9 13 -20z"/>
<path d="M5181 4963 c0 -5 14 -19 32 -32 l32 -25 -29 32 c-31 33 -36 37 -35
25z"/>
<path d="M5268 4910 c56 -52 68 -52 17 0 -21 22 -44 40 -50 40 -5 0 9 -18 33
-40z"/>
<path d="M1841 4765 c18 -19 37 -35 43 -35 5 0 -5 16 -24 35 -19 19 -38 35
-42 35 -5 0 6 -16 23 -35z"/>
<path d="M5067 4769 c7 -7 15 -10 18 -7 3 3 -2 9 -12 12 -14 6 -15 5 -6 -5z"/>
<path d="M5100 4770 c0 -5 5 -10 11 -10 5 0 7 5 4 10 -3 6 -8 10 -11 10 -2 0
-4 -4 -4 -10z"/>
<path d="M1900 4703 c0 -5 9 -18 20 -28 11 -10 20 -14 20 -8 0 5 -9 18 -20 28
-11 10 -20 14 -20 8z"/>
<path d="M9254 4669 c27 -11 50 -18 53 -16 5 6 -73 37 -90 36 -6 0 10 -9 37
-20z"/>
<path d="M1950 4640 c0 -5 5 -10 10 -10 6 0 10 5 10 10 0 6 -4 10 -10 10 -5 0
-10 -4 -10 -10z"/>
<path d="M9424 4605 c11 -8 29 -15 40 -15 16 1 12 5 -13 15 -42 19 -52 19 -27
0z"/>
<path d="M1937 4534 c-3 -5 19 -33 49 -63 30 -30 54 -50 54 -45 -1 16 -97 117
-103 108z"/>
<path d="M6985 4492 c-16 -2 -33 -9 -37 -15 -6 -9 -10 -9 -16 0 -6 10 -57 11
-193 4 -18 -1 -28 -8 -32 -21 -6 -23 -3 -24 24 -10 13 8 25 7 41 -1 18 -10 24
-8 35 7 7 10 13 14 13 8 0 -10 119 -13 135 -3 6 4 25 7 44 7 39 1 43 3 27 17
-6 6 -24 8 -41 7z"/>
<path d="M7437 4473 c-12 -12 -7 -21 11 -19 11 1 16 -5 14 -17 -4 -25 31 -19
36 6 2 11 -1 15 -11 11 -8 -3 -17 2 -20 10 -7 17 -19 21 -30 9z"/>
<path d="M7840 4470 c0 -5 5 -10 11 -10 5 0 7 5 4 10 -3 6 -8 10 -11 10 -2 0
-4 -4 -4 -10z"/>
<path d="M2065 4427 c15 -21 30 -35 33 -32 3 3 -9 20 -27 38 l-34 32 28 -38z"/>
<path d="M7186 4444 c-9 -24 -7 -28 9 -14 17 14 20 30 6 30 -5 0 -12 -7 -15
-16z"/>
<path d="M7385 4450 c3 -5 8 -10 11 -10 2 0 4 5 4 10 0 6 -5 10 -11 10 -5 0
-7 -4 -4 -10z"/>
<path d="M7538 4447 c-31 -12 -35 -22 -14 -30 9 -3 21 4 30 19 9 13 15 24 14
23 -2 -1 -15 -6 -30 -12z"/>
<path d="M7636 4438 c-9 -12 -13 -24 -11 -27 6 -5 45 29 45 41 0 15 -19 8 -34
-14z"/>
<path d="M7785 4449 c-4 -6 -5 -12 -2 -15 2 -3 7 2 10 11 7 17 1 20 -8 4z"/>
<path d="M7095 4440 c-3 -5 -1 -10 4 -10 6 0 11 5 11 10 0 6 -2 10 -4 10 -3 0
-8 -4 -11 -10z"/>
<path d="M7234 4439 c-5 -9 -2 -10 11 -5 11 4 22 1 27 -6 7 -10 9 -9 5 2 -5
19 -33 25 -43 9z"/>
<path d="M7805 4430 c3 -5 8 -10 11 -10 2 0 4 5 4 10 0 6 -5 10 -11 10 -5 0
-7 -4 -4 -10z"/>
<path d="M7742 4408 c-14 -14 -16 -28 -2 -28 5 0 14 9 20 20 12 22 1 27 -18 8z"/>
<path d="M2059 4395 c17 -33 101 -121 101 -107 0 7 5 10 10 7 14 -9 12 7 -5
28 -7 11 -12 24 -11 30 2 7 1 8 -2 4 -2 -5 -13 0 -25 10 -19 17 -20 17 -14 1
10 -28 -5 -21 -36 14 -16 18 -24 24 -18 13z m87 -62 c20 -27 16 -38 -6 -18
-20 18 -26 35 -14 35 4 0 13 -8 20 -17z"/>
<path d="M7820 4390 c0 -5 5 -10 10 -10 6 0 10 5 10 10 0 6 -4 10 -10 10 -5 0
-10 -4 -10 -10z"/>
<path d="M8042 4378 c-16 -16 -15 -28 2 -28 8 0 17 7 20 16 3 8 11 12 17 8 8
-4 9 -3 5 4 -9 15 -29 15 -44 0z"/>
<path d="M6160 4361 c0 -5 9 -7 20 -4 11 3 20 7 20 9 0 2 -9 4 -20 4 -11 0
-20 -4 -20 -9z"/>
<path d="M8625 4361 c-6 -11 33 -26 43 -16 4 3 0 10 -8 15 -19 12 -27 12 -35
1z"/>
<path d="M7855 4341 c-3 -5 -1 -12 5 -16 5 -3 10 1 10 9 0 18 -6 21 -15 7z"/>
<path d="M5695 4320 c-3 -5 -1 -10 4 -10 6 0 11 5 11 10 0 6 -2 10 -4 10 -3 0
-8 -4 -11 -10z"/>
<path d="M8015 4319 c-4 -6 -5 -12 -2 -15 2 -3 7 2 10 11 7 17 1 20 -8 4z"/>
<path d="M8074 4309 c-19 -22 -19 -22 4 -8 12 8 22 17 22 21 0 12 -6 9 -26
-13z"/>
<path d="M2099 4307 c9 -11 10 -17 2 -17 -7 0 -5 -9 5 -26 9 -14 22 -23 29
-20 7 2 18 -1 26 -7 7 -7 -2 7 -20 30 -18 24 -38 46 -44 50 -7 4 -6 -1 2 -10z"/>
<path d="M8315 4309 c-4 -6 -5 -13 -2 -16 7 -7 27 6 27 18 0 12 -17 12 -25 -2z"/>
<path d="M8570 4290 c0 -5 7 -10 16 -10 8 0 12 5 9 10 -3 6 -10 10 -16 10 -5
0 -9 -4 -9 -10z"/>
<path d="M8530 4265 c-11 -13 -10 -14 4 -9 9 3 16 10 16 15 0 13 -6 11 -20 -6z"/>
<path d="M6400 4209 c-307 -13 -554 -50 -643 -96 -44 -22 -27 -25 29 -3 79 29
204 43 394 43 96 0 158 2 138 4 -21 2 -38 9 -38 15 0 12 350 6 385 -7 16 -6
17 -5 5 4 -16 12 -14 12 28 14 31 0 359 -14 411 -18 18 -2 38 -9 42 -17 7 -11
9 -11 9 1 0 11 3 11 15 1 10 -8 28 -10 51 -5 23 4 39 2 44 -4 3 -6 55 -18 116
-26 148 -21 283 -44 319 -55 17 -5 46 -11 66 -14 20 -3 72 -17 115 -31 91 -29
107 -30 79 -9 -19 16 -19 16 5 9 14 -4 41 -17 60 -28 29 -18 33 -18 21 -3 -8
9 -31 26 -50 37 -26 14 -29 18 -11 13 26 -7 62 -25 92 -46 23 -16 32 -5 17 20
-9 14 -43 28 -113 47 -97 25 -184 50 -216 62 -8 3 -34 5 -57 4 -48 -3 -73 7
-52 20 7 4 10 11 6 15 -3 4 -13 1 -22 -6 -10 -8 -30 -10 -57 -6 -24 3 -65 8
-93 11 -27 3 -81 10 -120 15 -99 13 -479 38 -675 44 -58 1 -193 -1 -300 -5z
m-140 -39 c0 -5 -12 -10 -26 -10 -14 0 -23 4 -19 10 3 6 15 10 26 10 10 0 19
-4 19 -10z m1159 -35 c57 -8 107 -18 110 -21 3 -4 -14 -4 -39 0 -25 4 -80 11
-124 16 -43 5 -81 12 -84 15 -8 8 26 6 137 -10z m292 -50 c64 -20 28 -17 -71
5 -74 17 -78 19 -29 14 30 -3 75 -11 100 -19z m184 -46 c37 -14 42 -18 19 -15
-36 6 -107 34 -84 34 8 0 38 -8 65 -19z"/>
<path d="M8845 4200 c-3 -5 -1 -10 4 -10 6 0 11 5 11 10 0 6 -2 10 -4 10 -3 0
-8 -4 -11 -10z"/>
<path d="M2179 4163 c5 -10 22 -29 37 -43 26 -23 25 -22 -5 18 -34 43 -49 55
-32 25z"/>
<path d="M2168 4134 c17 -22 39 -47 49 -55 27 -22 -20 41 -53 71 -27 24 -27
24 4 -16z"/>
<path d="M6360 4160 c0 -5 5 -10 11 -10 5 0 7 5 4 10 -3 6 -8 10 -11 10 -2 0
-4 -4 -4 -10z"/>
<path d="M8387 4163 c-4 -3 -7 -11 -7 -17 0 -6 5 -5 12 2 6 6 9 14 7 17 -3 3
-9 2 -12 -2z"/>
<path d="M6418 4153 c7 -3 16 -2 19 1 4 3 -2 6 -13 5 -11 0 -14 -3 -6 -6z"/>
<path d="M6555 4149 c-15 -6 -11 -8 18 -8 20 -1 37 1 37 3 0 9 -37 12 -55 5z"/>
<path d="M6768 4143 c7 -3 16 -2 19 1 4 3 -2 6 -13 5 -11 0 -14 -3 -6 -6z"/>
<path d="M7034 4139 c-3 -5 6 -9 20 -9 31 0 34 6 6 13 -11 3 -23 1 -26 -4z"/>
<path d="M6890 4130 c0 -5 -12 -10 -27 -10 -48 0 -19 -9 47 -14 158 -13 225
-15 190 -7 -19 5 -69 11 -110 15 -100 7 -99 7 -65 16 l30 8 -32 1 c-18 0 -33
-3 -33 -9z"/>
<path d="M7099 4127 c5 -5 19 -7 32 -5 20 3 19 5 -9 9 -20 3 -29 2 -23 -4z"/>
<path d="M2440 4110 c6 -11 13 -20 16 -20 2 0 0 9 -6 20 -6 11 -13 20 -16 20
-2 0 0 -9 6 -20z"/>
<path d="M6736 4118 c3 -4 24 -8 46 -8 23 0 38 3 34 8 -10 10 -86 10 -80 0z"/>
<path d="M7828 4123 c7 -3 16 -2 19 1 4 3 -2 6 -13 5 -11 0 -14 -3 -6 -6z"/>
<path d="M4483 4113 c-17 -6 -17 -23 0 -23 8 0 14 7 14 15 0 8 -1 15 -1 14 -1
0 -7 -3 -13 -6z"/>
<path d="M4527 4113 c-4 -3 -7 -11 -7 -17 0 -6 5 -5 12 2 6 6 9 14 7 17 -3 3
-9 2 -12 -2z"/>
<path d="M7203 4113 c9 -2 23 -2 30 0 6 3 -1 5 -18 5 -16 0 -22 -2 -12 -5z"/>
<path d="M7298 4103 c7 -3 16 -2 19 1 4 3 -2 6 -13 5 -11 0 -14 -3 -6 -6z"/>
<path d="M6671 4096 c11 -9 69 -15 64 -6 -3 6 -20 10 -37 10 -17 0 -29 -2 -27
-4z"/>
<path d="M7348 4093 c6 -2 18 -2 25 0 6 3 1 5 -13 5 -14 0 -19 -2 -12 -5z"/>
<path d="M2180 4082 c0 -12 19 -26 26 -19 2 2 -2 10 -11 17 -9 8 -15 8 -15 2z"/>
<path d="M2390 4084 c0 -3 14 -25 30 -49 31 -45 37 -61 20 -50 -5 3 -10 1 -10
-5 0 -6 -4 -9 -9 -6 -4 3 -6 -5 -4 -19 3 -13 11 -26 19 -29 16 -6 19 10 4 19
-16 10 -12 23 10 30 18 6 17 10 -17 61 -34 51 -43 61 -43 48z"/>
<path d="M6843 4083 c9 -2 23 -2 30 0 6 3 -1 5 -18 5 -16 0 -22 -2 -12 -5z"/>
<path d="M7198 4083 c7 -3 16 -2 19 1 4 3 -2 6 -13 5 -11 0 -14 -3 -6 -6z"/>
<path d="M7413 4083 c9 -2 23 -2 30 0 6 3 -1 5 -18 5 -16 0 -22 -2 -12 -5z"/>
<path d="M8155 4080 c-3 -5 -1 -10 4 -10 6 0 11 5 11 10 0 6 -2 10 -4 10 -3 0
-8 -4 -11 -10z"/>
<path d="M8356 4075 c-10 -7 -16 -19 -14 -25 2 -6 14 0 27 14 26 28 18 35 -13
11z"/>
<path d="M6978 4073 c7 -3 16 -2 19 1 4 3 -2 6 -13 5 -11 0 -14 -3 -6 -6z"/>
<path d="M7058 4073 c7 -3 16 -2 19 1 4 3 -2 6 -13 5 -11 0 -14 -3 -6 -6z"/>
<path d="M7288 4073 c7 -3 16 -2 19 1 4 3 -2 6 -13 5 -11 0 -14 -3 -6 -6z"/>
<path d="M7503 4073 c9 -2 23 -2 30 0 6 3 -1 5 -18 5 -16 0 -22 -2 -12 -5z"/>
<path d="M8058 4073 c7 -3 16 -2 19 1 4 3 -2 6 -13 5 -11 0 -14 -3 -6 -6z"/>
<path d="M7108 4063 c12 -2 30 -2 40 0 9 3 -1 5 -23 4 -22 0 -30 -2 -17 -4z"/>
<path d="M7378 4063 c7 -3 16 -2 19 1 4 3 -2 6 -13 5 -11 0 -14 -3 -6 -6z"/>
<path d="M7568 4063 c6 -2 18 -2 25 0 6 3 1 5 -13 5 -14 0 -19 -2 -12 -5z"/>
<path d="M9164 4056 c-18 -8 -35 -19 -38 -25 -4 -5 -14 -7 -23 -4 -11 4 -14 3
-9 -5 9 -15 56 -15 91 -2 21 8 25 13 16 24 -6 7 -8 16 -4 19 9 10 2 8 -33 -7z"/>
<path d="M6948 4053 c7 -3 16 -2 19 1 4 3 -2 6 -13 5 -11 0 -14 -3 -6 -6z"/>
<path d="M7090 4040 c8 -5 31 -9 50 -9 l35 1 -30 8 c-16 4 -39 8 -50 9 -16 1
-17 -1 -5 -9z"/>
<path d="M3980 4024 c-14 -8 -17 -13 -7 -10 10 3 25 6 33 6 8 0 14 5 14 10 0
14 -10 12 -40 -6z"/>
<path d="M7185 4030 c3 -5 11 -10 16 -10 6 0 7 5 4 10 -3 6 -11 10 -16 10 -6
0 -7 -4 -4 -10z"/>
<path d="M7735 4031 c11 -5 36 -11 55 -15 l35 -6 -35 14 c-19 8 -44 15 -55 15
l-20 0 20 -8z"/>
<path d="M8880 4025 c-7 -9 -8 -15 -2 -15 5 0 12 7 16 15 3 8 4 15 2 15 -2 0
-9 -7 -16 -15z"/>
<path d="M7238 4023 c7 -3 16 -2 19 1 4 3 -2 6 -13 5 -11 0 -14 -3 -6 -6z"/>
<path d="M7278 4023 c7 -3 16 -2 19 1 4 3 -2 6 -13 5 -11 0 -14 -3 -6 -6z"/>
<path d="M7028 4013 c7 -3 16 -2 19 1 4 3 -2 6 -13 5 -11 0 -14 -3 -6 -6z"/>
<path d="M2143 3979 c2 -20 7 -41 11 -47 3 -5 2 -12 -4 -14 -19 -6 -19 -66 1
-104 10 -21 16 -49 14 -63 -5 -25 -5 -25 6 2 10 26 12 27 29 12 16 -14 18 -14
23 0 4 8 4 21 1 29 -3 8 0 17 7 22 7 4 10 3 6 -4 -24 -38 40 -50 72 -13 10 12
23 21 30 21 14 0 15 17 1 25 -18 11 -10 23 19 30 20 4 28 11 24 21 -3 7 2 17
11 20 17 7 22 39 7 48 -5 3 -11 -4 -14 -16 -5 -17 -9 -19 -20 -10 -12 10 -13
8 -9 -13 2 -14 0 -25 -6 -25 -6 0 -20 -10 -32 -22 -11 -12 -20 -17 -20 -11 0
6 -17 9 -40 8 -30 -2 -43 2 -50 15 -7 13 -5 20 6 24 9 3 20 4 25 0 5 -3 9 -1
9 3 0 5 -13 17 -29 26 -17 10 -33 26 -36 37 -4 11 -11 17 -17 14 -6 -4 -14 0
-19 7 -6 9 -8 2 -6 -22z m77 -56 c0 -3 -4 -2 -9 1 -4 3 -20 10 -35 16 -15 5
-24 14 -21 20 5 8 65 -26 65 -37z m-35 -23 c3 -5 -1 -10 -9 -10 -9 0 -16 5
-16 10 0 6 4 10 9 10 6 0 13 -4 16 -10z m-20 -30 c3 -5 1 -10 -4 -10 -6 0 -11
5 -11 10 0 6 2 10 4 10 3 0 8 -4 11 -10z m125 -70 c0 -5 -4 -10 -10 -10 -5 0
-10 5 -10 10 0 6 5 10 10 10 6 0 10 -4 10 -10z"/>
<path d="M2365 3989 c-3 -4 2 -6 10 -5 21 3 28 13 10 13 -9 0 -18 -4 -20 -8z"/>
<path d="M2530 3982 c6 -13 14 -21 18 -18 3 4 -2 14 -12 24 -18 16 -18 16 -6
-6z"/>
<path d="M6868 3993 c12 -2 32 -2 45 0 12 2 2 4 -23 4 -25 0 -35 -2 -22 -4z"/>
<path d="M7228 3993 c7 -3 16 -2 19 1 4 3 -2 6 -13 5 -11 0 -14 -3 -6 -6z"/>
<path d="M7878 3993 c7 -3 16 -2 19 1 4 3 -2 6 -13 5 -11 0 -14 -3 -6 -6z"/>
<path d="M8287 3986 c-4 -10 -1 -13 9 -9 15 6 19 23 5 23 -5 0 -11 -7 -14 -14z"/>
<path d="M8859 3983 c-13 -16 -12 -17 4 -4 9 7 17 15 17 17 0 8 -8 3 -21 -13z"/>
<path d="M7018 3983 c7 -3 16 -2 19 1 4 3 -2 6 -13 5 -11 0 -14 -3 -6 -6z"/>
<path d="M7313 3983 c9 -2 23 -2 30 0 6 3 -1 5 -18 5 -16 0 -22 -2 -12 -5z"/>
<path d="M7855 3970 c27 -12 43 -12 25 0 -8 5 -22 9 -30 9 -10 0 -8 -3 5 -9z"/>
<path d="M2461 3961 c-8 -5 -9 -11 -3 -15 5 -3 12 1 16 9 6 17 6 18 -13 6z"/>
<path d="M8780 3899 c-17 -33 -29 -63 -27 -66 3 -2 8 5 12 17 10 31 64 90 84
91 12 0 12 2 -4 9 -11 5 -23 9 -26 9 -4 1 -21 -26 -39 -60z"/>
<path d="M8246 3924 c-4 -9 -4 -19 -1 -22 2 -3 7 3 11 12 4 9 4 19 1 22 -2 3
-7 -3 -11 -12z"/>
<path d="M10195 3930 c-9 -14 -95 -68 -175 -109 -36 -19 -72 -40 -80 -47 -30
-25 -88 -44 -119 -38 -29 6 -31 5 -31 -24 0 -16 7 -46 15 -65 21 -50 19 -71
-10 -105 -36 -43 -31 -49 10 -13 31 27 41 30 76 25 36 -6 42 -4 76 31 20 21
66 51 102 67 39 18 60 33 52 37 -14 9 16 24 81 41 23 6 60 16 82 21 21 6 36
12 34 14 -6 6 -153 -30 -208 -50 -25 -10 -56 -19 -69 -20 -12 -2 -30 -14 -39
-27 -35 -51 -81 -89 -104 -86 -24 3 -65 56 -75 96 -6 27 9 42 45 42 28 0 338
184 346 205 6 17 0 20 -9 5z"/>
<path d="M2276 3917 c3 -10 9 -15 12 -12 3 3 0 11 -7 18 -10 9 -11 8 -5 -6z"/>
<path d="M2649 3886 c-2 -2 -37 -7 -77 -10 -40 -3 -86 -13 -102 -21 -16 -8
-40 -15 -55 -15 -14 0 -25 -5 -25 -11 0 -8 11 -9 33 -4 17 3 59 10 92 15 61 8
175 38 175 46 0 5 -35 5 -41 0z"/>
<path d="M9832 3848 c-7 -7 -12 -18 -12 -24 0 -18 58 -14 65 4 7 20 -3 28 -17
14 -17 -17 -33 -15 -18 3 15 18 -1 20 -18 3z"/>
<path d="M4048 3843 c6 -2 18 -2 25 0 6 3 1 5 -13 5 -14 0 -19 -2 -12 -5z"/>
<path d="M3135 3819 c-28 -4 -33 -7 -15 -9 48 -4 -136 -29 -242 -32 -59 -2
-108 -6 -108 -10 0 -5 7 -8 15 -8 29 0 15 -28 -17 -35 -18 -4 -43 -18 -55 -32
-16 -18 -26 -22 -40 -15 -10 4 -53 10 -96 11 -43 2 -93 7 -110 12 -40 11 -47
11 -47 0 0 -15 92 -33 179 -35 50 -1 86 -7 88 -13 5 -14 -59 -21 -88 -11 -29
11 -35 3 -20 -28 11 -26 11 -26 -19 -22 -16 3 -30 2 -30 -2 0 -4 -12 -12 -26
-19 -18 -8 -24 -16 -19 -28 3 -10 3 -14 -1 -10 -4 4 -12 -3 -19 -16 -8 -15 -8
-25 -1 -30 7 -6 4 -7 -6 -4 -17 6 -46 -19 -34 -30 3 -3 6 -1 6 5 0 7 5 12 10
12 7 0 7 -7 0 -20 -6 -11 -16 -18 -21 -14 -6 3 -13 -3 -16 -15 -3 -12 -9 -21
-14 -21 -5 0 -9 -12 -9 -27 0 -16 -9 -41 -21 -58 -11 -16 -27 -43 -35 -60 -8
-16 -9 -22 -2 -11 25 36 61 77 65 73 2 -2 -11 -27 -29 -55 -18 -28 -45 -70
-59 -94 -67 -109 -122 -193 -128 -198 -4 -3 -18 -23 -31 -45 -29 -48 -47 -73
-123 -166 -31 -39 -54 -75 -51 -80 3 -5 1 -8 -4 -7 -5 2 -29 -18 -52 -45 -23
-26 -46 -45 -50 -42 -5 3 -12 0 -16 -6 -5 -8 -3 -9 6 -4 9 5 11 4 6 -3 -4 -7
-13 -12 -21 -12 -8 0 -23 -10 -34 -21 l-20 -21 6 21 c3 12 9 24 14 27 5 3 9
10 9 16 0 7 -9 2 -21 -11 -12 -12 -27 -20 -34 -17 -7 2 -31 -17 -55 -45 -22
-27 -46 -49 -53 -49 -6 0 4 16 23 35 35 36 32 48 -4 18 -20 -18 -20 -17 -6 2
8 11 21 24 28 28 6 4 12 14 12 22 0 8 9 20 20 28 14 9 18 21 14 33 -4 13 -3
15 3 7 10 -14 39 13 101 94 39 51 41 65 6 32 l-26 -24 21 40 c15 27 19 49 15
71 -3 18 -1 35 5 38 7 5 9 0 5 -11 -5 -16 -4 -16 10 1 19 24 21 40 4 31 -7 -4
-4 2 7 12 11 10 29 32 39 48 l19 30 -32 -30 -32 -29 15 30 c9 17 31 43 51 60
19 16 35 35 35 42 0 7 4 11 8 8 4 -2 9 6 10 20 3 33 -13 30 -28 -6 -14 -34
-30 -48 -30 -27 0 7 16 31 35 53 22 24 32 31 28 19 -4 -14 6 -8 36 20 22 21
41 44 41 50 0 5 -14 -5 -30 -23 -24 -26 -34 -31 -48 -23 -16 10 -16 10 0 11
15 0 58 48 58 65 0 4 -10 5 -22 2 -20 -5 -19 -3 7 19 17 13 38 27 48 30 11 3
35 24 55 47 21 22 49 54 65 71 15 17 27 35 27 41 0 5 -30 -23 -66 -62 -36 -40
-70 -73 -76 -73 -5 0 -6 6 -1 13 4 6 8 17 8 22 0 16 36 65 48 65 6 0 1 -10
-10 -22 -43 -49 -33 -50 16 -3 57 55 142 165 100 130 -13 -11 -28 -25 -34 -31
-5 -6 -19 -14 -30 -18 -11 -4 -1 9 23 29 23 20 42 42 42 48 0 6 -13 -1 -28
-16 -15 -15 -32 -27 -37 -27 -5 0 10 18 34 40 29 27 41 46 37 57 -4 9 1 24 10
34 21 23 12 24 -24 3 -25 -15 -26 -15 -7 1 11 9 31 25 45 35 l25 19 -35 2
c-19 1 -48 3 -65 5 -16 2 -40 1 -52 -2 -21 -4 -22 -8 -16 -67 5 -60 3 -70 -42
-173 -26 -60 -69 -155 -96 -211 -27 -57 -49 -108 -49 -114 0 -5 -11 -27 -25
-47 -14 -20 -25 -42 -25 -48 0 -18 -193 -390 -258 -499 -43 -71 -107 -161
-122 -170 -18 -11 -11 -25 14 -25 71 0 226 114 405 298 115 118 185 203 288
348 38 53 84 118 103 144 19 27 86 120 149 207 208 287 245 328 330 358 57 20
98 18 140 -4 33 -18 35 -18 67 1 31 18 88 18 119 -1 10 -6 16 -7 48 -9 21 -2
23 -22 2 -22 -8 0 -15 -4 -15 -10 0 -14 12 -12 39 6 16 12 37 15 73 12 28 -3
44 -2 37 2 -14 8 -195 43 -284 55 -41 6 -46 9 -31 17 41 23 136 51 231 68
l100 19 -85 -2 c-47 -1 -103 -5 -125 -8z m-145 -119 c0 -5 -4 -10 -10 -10 -5
0 -10 5 -10 10 0 6 5 10 10 10 6 0 10 -4 10 -10z m-769 -134 c-6 -14 -13 -26
-16 -26 -7 0 -1 32 9 48 13 21 17 7 7 -22z m220 -159 c-10 -9 -11 -8 -5 6 3
10 9 15 12 12 3 -3 0 -11 -7 -18z m-31 -61 c0 -3 -4 -8 -10 -11 -5 -3 -10 -1
-10 4 0 6 5 11 10 11 6 0 10 -2 10 -4z m-347 -41 c-3 -9 -8 -14 -10 -11 -3 3
-2 9 2 15 9 16 15 13 8 -4z m227 -202 c-1 -8 -71 -119 -90 -140 -5 -7 -10 -16
-10 -21 0 -5 -11 -19 -25 -32 -35 -33 -31 -8 5 33 17 19 30 38 30 43 0 12 74
123 83 124 4 0 7 -3 7 -7z m-150 -227 c0 -2 -8 -10 -17 -17 -16 -13 -17 -12
-4 4 13 16 21 21 21 13z m-296 -61 c-6 -16 -24 -21 -24 -7 0 11 11 22 21 22 5
0 6 -7 3 -15z m-125 -361 c-28 -30 -109 -88 -109 -78 0 4 8 13 18 20 15 12 15
15 2 24 -11 7 -16 6 -18 -4 -3 -15 -32 -31 -32 -18 0 4 12 21 26 37 15 17 23
22 20 13 -3 -11 0 -18 8 -18 8 0 16 -4 18 -10 2 -5 20 6 41 25 45 41 61 47 26
9z"/>
<path d="M3518 3823 c7 -3 16 -2 19 1 4 3 -2 6 -13 5 -11 0 -14 -3 -6 -6z"/>
<path d="M9768 3823 c-21 -5 -24 -23 -5 -23 7 0 22 7 33 15 20 15 9 18 -28 8z"/>
<path d="M2943 3803 c15 -2 39 -2 55 0 15 2 2 4 -28 4 -30 0 -43 -2 -27 -4z"/>
<path d="M8732 3785 c-6 -14 -8 -25 -3 -25 8 0 23 41 17 47 -1 2 -8 -8 -14
-22z"/>
<path d="M2570 3791 c0 -5 34 -9 75 -10 40 0 78 -1 82 -2 4 -1 19 3 33 9 20 9
4 11 -82 11 -60 1 -108 -3 -108 -8z"/>
<path d="M10458 3783 c12 -2 30 -2 40 0 9 3 -1 5 -23 4 -22 0 -30 -2 -17 -4z"/>
<path d="M10576 3775 c4 -8 8 -15 10 -15 2 0 4 7 4 15 0 8 -4 15 -10 15 -5 0
-7 -7 -4 -15z"/>
<path d="M8721 3675 c0 -22 4 -60 8 -85 8 -42 9 -41 9 26 0 39 -4 78 -9 85 -6
9 -8 1 -8 -26z"/>
<path d="M3404 3649 c-3 -5 -1 -9 5 -9 5 0 16 -3 25 -6 9 -3 16 -2 16 4 0 13
-38 23 -46 11z"/>
<path d="M3530 3646 c0 -2 7 -7 16 -10 8 -3 12 -2 9 4 -6 10 -25 14 -25 6z"/>
<path d="M3448 3623 c-7 -8 -23 -19 -36 -24 -14 -5 -23 -12 -20 -14 3 -3 26 3
52 12 44 17 49 17 109 0 34 -10 75 -21 90 -24 32 -6 31 -26 -1 -31 -12 -2 -22
-8 -22 -13 0 -13 17 -11 51 6 32 17 87 9 124 -19 11 -9 27 -15 35 -15 13 1 13
1 0 6 -8 3 -22 11 -30 18 -8 8 -46 23 -85 35 -38 12 -79 26 -90 31 -27 12 -82
29 -127 39 -28 5 -41 4 -50 -7z"/>
<path d="M2265 3560 c-3 -5 -1 -10 4 -10 6 0 11 5 11 10 0 6 -2 10 -4 10 -3 0
-8 -4 -11 -10z"/>
<path d="M2430 3510 c-6 -11 -8 -20 -6 -20 3 0 10 9 16 20 6 11 8 20 6 20 -3
0 -10 -9 -16 -20z"/>
<path d="M2273 3498 c-20 -26 -26 -41 -15 -34 12 7 36 46 29 46 -3 0 -9 -6
-14 -12z"/>
<path d="M2287 3473 c-11 -13 -17 -27 -14 -30 3 -2 13 7 23 21 22 34 15 42 -9
9z"/>
<path d="M10125 3490 c-3 -5 -2 -10 4 -10 5 0 13 5 16 10 3 6 2 10 -4 10 -5 0
-13 -4 -16 -10z"/>
<path d="M3867 3454 c-15 -8 -32 -12 -37 -9 -6 3 -10 1 -10 -4 0 -6 6 -11 13
-11 15 1 86 39 72 39 -5 0 -22 -7 -38 -15z"/>
<path d="M3956 3461 c-4 -6 3 -15 14 -21 23 -12 27 2 6 19 -9 8 -16 8 -20 2z"/>
<path d="M10030 3456 c-14 -8 -40 -20 -57 -26 -18 -7 -33 -16 -33 -20 0 -11
71 10 91 27 8 7 21 13 27 13 7 0 12 5 12 10 0 13 -10 12 -40 -4z"/>
<path d="M2346 3448 c3 -4 9 -8 15 -8 5 0 9 4 9 8 0 5 -7 9 -15 9 -8 0 -12 -4
-9 -9z"/>
<path d="M2376 3433 c-6 -14 -5 -15 5 -6 7 7 10 15 7 18 -3 3 -9 -2 -12 -12z"/>
<path d="M2224 3394 c-74 -91 -128 -154 -132 -154 -2 0 -2 7 2 15 3 8 1 15 -4
15 -16 0 -21 -20 -8 -34 11 -11 18 -7 48 27 19 23 47 52 61 66 32 33 73 91 67
97 -3 2 -18 -12 -34 -32z"/>
<path d="M9880 3387 c-14 -7 -27 -15 -30 -19 -3 -3 -17 -8 -30 -10 -33 -4 -75
-34 -61 -43 6 -3 17 -3 24 2 6 4 19 6 28 5 8 -1 24 7 34 18 10 11 22 20 27 20
11 0 42 29 37 34 -2 2 -15 -1 -29 -7z"/>
<path d="M4090 3381 c12 -9 12 -11 -3 -17 -10 -3 -28 -4 -41 -2 -17 4 -23 1
-19 -9 7 -17 32 -17 78 3 42 17 42 19 0 28 -21 5 -26 4 -15 -3z"/>
<path d="M2349 3343 c-22 -46 -22 -50 1 -15 13 18 20 35 18 37 -3 3 -11 -7
-19 -22z"/>
<path d="M4180 3364 c0 -11 29 -30 100 -65 l55 -27 -30 -11 c-27 -11 -32 -10
-52 14 -27 31 -29 26 -8 -15 18 -35 13 -34 76 -14 57 19 85 12 138 -37 18 -16
49 -38 69 -48 30 -16 34 -21 20 -26 -10 -4 -29 -8 -43 -9 -14 0 -25 -4 -25 -8
0 -11 20 -10 78 3 45 11 52 10 93 -15 24 -14 55 -35 68 -47 21 -17 23 -22 10
-31 -12 -8 -11 -9 2 -5 19 6 99 -30 99 -44 0 -5 9 -9 20 -9 12 0 32 -7 46 -16
13 -9 28 -14 31 -10 10 10 -29 35 -54 36 -15 0 -23 6 -23 18 0 9 -15 26 -33
38 -61 40 -112 69 -115 65 -7 -8 -202 104 -202 116 0 7 -6 13 -14 13 -13 0
-127 48 -176 74 -14 7 -38 16 -55 20 -16 4 -40 17 -52 28 -13 12 -23 17 -23
12z"/>
<path d="M9723 3309 c9 -5 17 -16 17 -23 0 -20 73 -41 96 -27 17 9 15 10 -14
11 -19 0 -31 4 -27 10 3 5 0 7 -9 4 -8 -3 -24 4 -35 15 -12 12 -27 21 -33 21
-7 0 -5 -5 5 -11z"/>
<path d="M9920 3300 c-9 -6 -10 -10 -3 -10 6 0 15 5 18 10 8 12 4 12 -15 0z"/>
<path d="M9875 3280 c-3 -6 1 -7 9 -4 18 7 21 14 7 14 -6 0 -13 -4 -16 -10z"/>
<path d="M9358 3253 c-16 -2 -28 -8 -28 -13 0 -10 49 -3 85 11 18 7 17 8 -5 7
-14 -1 -37 -3 -52 -5z"/>
<path d="M9188 3213 c7 -3 16 -2 19 1 4 3 -2 6 -13 5 -11 0 -14 -3 -6 -6z"/>
<path d="M9599 3171 c-13 -10 -46 -30 -74 -45 -27 -15 -39 -24 -25 -20 40 10
93 40 114 63 24 26 17 27 -15 2z"/>
<path d="M7529 3155 c31 -10 54 -12 75 -6 l31 10 -30 -1 c-16 -1 -50 2 -75 5
l-45 6 44 -14z"/>
<path d="M2250 3138 c-12 -22 -12 -22 6 -6 10 10 15 20 12 24 -4 3 -12 -5 -18
-18z"/>
<path d="M8127 3153 c-3 -5 -2 -15 2 -22 7 -10 10 -10 16 -1 4 6 3 16 -3 22
-5 5 -12 6 -15 1z"/>
<path d="M9235 3140 c-3 -6 1 -7 9 -4 18 7 21 14 7 14 -6 0 -13 -4 -16 -10z"/>
<path d="M9170 3129 c0 -6 -7 -9 -15 -6 -8 4 -17 2 -20 -3 -3 -5 3 -11 12 -13
10 -3 -3 -5 -29 -6 -26 0 -50 -5 -53 -11 -3 -5 1 -10 10 -10 9 0 13 -5 10 -10
-4 -6 -10 -8 -14 -5 -5 2 -21 -7 -36 -21 -20 -18 -36 -25 -55 -22 -14 2 -32
-2 -39 -9 -16 -18 -83 -14 -77 4 3 7 -1 13 -10 13 -8 0 -17 -7 -20 -15 -4 -8
-11 -15 -16 -15 -6 0 -5 6 2 15 10 12 9 15 -6 16 -11 1 -23 0 -29 -1 -5 -2
-19 -4 -30 -5 -53 -4 -95 -45 -60 -59 8 -3 15 -12 15 -21 0 -17 35 -21 45 -5
3 6 -3 10 -15 10 -12 0 -18 4 -15 11 4 5 30 9 58 8 54 -1 138 14 267 50 41 11
78 21 83 21 4 0 7 8 7 18 0 12 3 13 8 5 8 -13 52 -6 52 8 0 5 12 6 26 3 20 -5
25 -3 22 7 -3 8 -17 14 -31 14 -36 1 -44 12 -21 30 18 14 18 14 -3 15 -13 0
-23 -5 -23 -11z"/>
<path d="M2224 3098 c-4 -7 -14 -24 -22 -38 -14 -24 -13 -24 3 -5 20 24 37 55
31 55 -3 0 -8 -6 -12 -12z"/>
<path d="M2067 3093 c-4 -3 -7 -11 -7 -17 0 -6 5 -5 12 2 6 6 9 14 7 17 -3 3
-9 2 -12 -2z"/>
<path d="M7996 3078 c3 -13 12 -30 19 -38 7 -8 22 -33 34 -55 12 -22 27 -40
34 -40 6 -1 11 -6 10 -12 -4 -17 55 -76 67 -68 6 4 22 0 35 -9 13 -9 31 -16
40 -16 18 0 21 19 3 21 -7 1 -18 2 -24 3 -20 2 -111 90 -134 129 -12 20 -27
37 -33 37 -6 0 -7 3 -4 6 8 8 -31 64 -44 64 -6 0 -7 -10 -3 -22z"/>
<path d="M8145 3080 c3 -5 11 -10 16 -10 6 0 7 5 4 10 -3 6 -11 10 -16 10 -6
0 -7 -4 -4 -10z"/>
<path d="M2015 3069 c-4 -6 -5 -12 -2 -15 2 -3 7 2 10 11 7 17 1 20 -8 4z"/>
<path d="M8094 3035 c9 -22 25 -51 35 -65 18 -25 158 -106 167 -97 3 3 -22 20
-56 38 -56 30 -130 101 -130 126 0 6 -7 17 -16 24 -15 12 -14 9 0 -26z"/>
<path d="M8150 3052 c0 -17 55 -76 67 -71 5 2 -8 22 -29 43 -21 22 -38 35 -38
28z"/>
<path d="M8205 3040 c-3 -6 5 -11 19 -11 14 -1 31 -2 38 -3 6 -1 13 5 16 12 5
15 -64 17 -73 2z"/>
<path d="M4630 3036 c0 -2 7 -6 15 -10 8 -3 15 -1 15 4 0 6 -7 10 -15 10 -8 0
-15 -2 -15 -4z"/>
<path d="M4678 3023 c7 -3 16 -2 19 1 4 3 -2 6 -13 5 -11 0 -14 -3 -6 -6z"/>
<path d="M2129 2963 c-13 -16 -12 -17 4 -4 9 7 17 15 17 17 0 8 -8 3 -21 -13z"/>
<path d="M8905 2963 c-27 -8 -52 -18 -55 -22 -7 -9 -61 -29 -80 -29 -8 0 -30
-2 -47 -5 -18 -2 -33 0 -33 4 0 5 -5 9 -11 9 -5 0 -7 -6 -3 -12 6 -10 4 -10
-8 0 -11 9 -31 11 -65 6 -67 -9 -67 -14 0 -14 34 0 57 -4 57 -11 0 -10 10 -9
115 7 22 4 51 14 65 24 28 19 86 41 93 34 2 -2 10 2 17 11 7 8 11 15 9 14 -2
0 -26 -7 -54 -16z"/>
<path d="M2097 2913 c-11 -13 -17 -26 -14 -29 2 -3 12 7 21 22 23 33 17 39 -7
7z"/>
<path d="M2036 2894 c-5 -14 -4 -15 9 -4 17 14 19 20 6 20 -5 0 -12 -7 -15
-16z"/>
<path d="M8310 2866 c0 -4 75 -27 133 -40 41 -10 34 -30 -8 -23 -30 5 -35 3
-35 -14 0 -14 -7 -19 -27 -20 -23 -1 -24 -2 -6 -6 49 -9 503 92 467 104 -5 2
-50 -6 -99 -16 -87 -19 -258 -23 -310 -7 -72 21 -115 29 -115 22z m200 -56 c0
-5 -2 -10 -4 -10 -3 0 -8 5 -11 10 -3 6 -1 10 4 10 6 0 11 -4 11 -10z m35 0
c3 -5 1 -10 -4 -10 -6 0 -11 5 -11 10 0 6 2 10 4 10 3 0 8 -4 11 -10z"/>
<path d="M2037 2822 c-14 -22 -51 -67 -83 -101 -31 -34 -55 -64 -52 -66 2 -2
22 15 44 38 53 56 128 156 122 162 -3 3 -17 -12 -31 -33z"/>
<path d="M1991 2827 c-13 -21 -12 -21 5 -5 10 10 16 20 13 22 -3 3 -11 -5 -18
-17z"/>
<path d="M8176 2835 c10 -8 24 -14 29 -14 6 0 1 6 -9 14 -11 8 -24 15 -30 15
-5 0 -1 -7 10 -15z"/>
<path d="M8320 2810 c20 -13 43 -13 35 0 -3 6 -16 10 -28 10 -18 0 -19 -2 -7
-10z"/>
<path d="M8370 2800 c0 -5 5 -10 10 -10 6 0 10 5 10 10 0 6 -4 10 -10 10 -5 0
-10 -4 -10 -10z"/>
<path d="M1925 2753 c-34 -40 -69 -93 -63 -93 3 0 28 29 56 65 29 36 49 65 45
65 -4 0 -21 -17 -38 -37z"/>
<path d="M5151 2759 c-13 -10 -19 -19 -15 -19 13 1 48 29 43 34 -2 2 -15 -4
-28 -15z"/>
<path d="M5288 2763 c6 -2 18 -2 25 0 6 3 1 5 -13 5 -14 0 -19 -2 -12 -5z"/>
<path d="M5130 2713 c-92 -63 -210 -152 -210 -159 0 -3 14 5 31 18 84 62 131
92 207 134 45 25 82 48 82 50 0 16 -56 -5 -110 -43z"/>
<path d="M1856 2722 l-19 -27 26 24 c28 26 32 31 20 31 -5 0 -17 -13 -27 -28z"/>
<path d="M8045 2720 c-18 -8 -17 -9 8 -9 15 -1 27 4 27 9 0 12 -8 12 -35 0z"/>
<path d="M7975 2710 c-13 -6 -15 -9 -5 -9 8 0 22 4 30 9 18 12 2 12 -25 0z"/>
<path d="M7659 2666 c-8 -7 -146 -18 -265 -21 -67 -2 -131 -6 -144 -10 -14 -5
-20 -3 -16 3 4 6 -8 9 -31 7 -203 -19 -463 -36 -573 -37 -83 -1 -126 -4 -112
-9 12 -5 69 -6 125 -4 56 3 184 7 284 9 165 4 183 2 198 -14 11 -12 13 -20 5
-25 -8 -5 -8 -11 -1 -19 11 -13 5 -26 -11 -26 -5 0 -13 10 -18 23 -9 20 -9 19
-7 -8 2 -26 5 -30 30 -27 25 3 39 -12 17 -20 -7 -2 -5 -11 4 -23 13 -17 17
-18 25 -6 5 8 7 20 4 26 -4 12 55 40 65 30 3 -2 13 0 23 6 14 7 17 6 14 -4 -6
-14 -100 -78 -120 -81 -8 -1 -22 -10 -33 -19 -24 -22 -33 -22 -25 1 8 21 2 16
-20 -20 -17 -27 -17 -28 5 -25 17 1 23 -3 23 -18 1 -29 -33 -82 -55 -88 -11
-3 -20 -10 -20 -17 0 -7 8 -9 20 -5 17 5 20 2 20 -24 0 -17 -5 -41 -12 -54 -6
-12 -14 -29 -18 -37 -4 -8 -12 -15 -18 -15 -20 0 -25 -14 -11 -31 18 -21 91
-13 151 17 119 60 295 236 431 432 43 62 85 118 94 125 15 11 15 12 -3 12 -12
0 -23 -2 -25 -4z m-34 -63 c-34 -59 -114 -173 -121 -173 -6 0 23 51 66 115 15
22 35 55 44 73 9 17 21 32 27 32 6 0 -1 -21 -16 -47z m-430 -33 c3 -5 1 -10
-4 -10 -6 0 -11 5 -11 10 0 6 2 10 4 10 3 0 8 -4 11 -10z m150 0 c-9 -15 -45
-32 -45 -22 0 5 10 14 23 20 29 14 29 14 22 2z m4 -73 c-144 -136 -296 -257
-233 -186 26 30 36 57 24 64 -18 11 -10 22 18 28 26 5 74 33 172 101 25 16 51
36 58 43 7 7 16 13 20 13 4 0 -23 -28 -59 -63z m101 24 c0 -13 -357 -371 -370
-371 -12 0 3 35 20 45 14 9 12 21 -5 39 -14 13 -9 19 45 56 34 22 65 40 69 40
9 0 112 84 181 149 60 55 60 55 60 42z m60 -10 c-11 -21 -30 -37 -30 -25 0 8
30 44 37 44 2 0 -1 -9 -7 -19z m-65 -89 c-14 -27 -38 -61 -52 -78 -14 -16 -45
-54 -69 -86 -80 -104 -254 -205 -254 -149 0 6 42 42 93 80 92 70 220 189 267
249 37 47 45 39 15 -16z m-398 -338 c-3 -4 -14 -3 -24 0 -15 6 -15 8 -3 16 16
10 39 -4 27 -16z"/>
<path d="M7130 2230 c-9 -6 -10 -10 -3 -10 6 0 15 5 18 10 8 12 4 12 -15 0z"/>
<path d="M1757 2616 c-4 -10 -1 -13 9 -9 15 6 19 23 5 23 -5 0 -11 -7 -14 -14z"/>
<path d="M1829 2613 c-13 -16 -12 -17 4 -4 9 7 17 15 17 17 0 8 -8 3 -21 -13z"/>
<path d="M1720 2570 c-10 -19 -10 -20 9 -8 22 13 28 28 11 28 -5 0 -14 -9 -20
-20z"/>
<path d="M4827 2495 c-63 -52 -169 -125 -182 -125 -4 0 -27 -15 -53 -32 -84
-58 -275 -142 -303 -133 -10 3 -20 1 -24 -5 -3 -5 -11 -10 -16 -10 -6 0 -3 7
5 16 20 20 20 28 0 20 -23 -9 43 52 86 79 19 13 49 38 65 56 l30 33 -36 -29
c-19 -17 -84 -65 -142 -108 -59 -43 -107 -82 -107 -87 0 -31 166 15 320 88
136 64 320 181 414 264 58 51 10 28 -57 -27z m-622 -315 c4 -6 -5 -10 -20 -10
-15 0 -24 4 -20 10 3 6 12 10 20 10 8 0 17 -4 20 -10z"/>
<path d="M4489 2443 c-13 -16 -12 -17 4 -4 16 13 21 21 13 21 -2 0 -10 -8 -17
-17z"/>
</g>
</svg>
